<?xml version="1.0" encoding="utf-8"?>
<!-- Generator: Adobe Illustrator 24.0.1, SVG Export Plug-In . SVG Version: 6.00 Build 0)  -->
<svg version="1.1" xmlns="http://www.w3.org/2000/svg" xmlns:xlink="http://www.w3.org/1999/xlink" x="0px" y="0px"
	 viewBox="0 0 700 500" style="enable-background:new 0 0 700 500;" xml:space="preserve">
<style type="text/css">
	.st0{fill:#BD6C34;}
	.st1{opacity:0.7;fill:#BD6C34;}
	.st2{fill:#FFFFFF;stroke:#263238;stroke-linecap:round;stroke-linejoin:round;stroke-miterlimit:10;}
	.st3{fill:none;stroke:#263238;stroke-linecap:round;stroke-linejoin:round;stroke-miterlimit:10;}
	.st4{fill:none;stroke:#263238;stroke-width:2;stroke-linecap:round;stroke-linejoin:round;stroke-miterlimit:10;}
	.st5{fill:#92E3A9;}
	.st6{opacity:0.7;fill:#D18B5D;}
	.st7{opacity:0.7;fill:#D35500;}
	.st8{opacity:0.7;fill:#49270F;}
	.st9{fill:#263238;stroke:#263238;stroke-width:2;stroke-linecap:round;stroke-linejoin:round;stroke-miterlimit:10;}
	.st10{fill:#C9C9C9;stroke:#263238;stroke-linecap:round;stroke-linejoin:round;stroke-miterlimit:10;}
	.st11{fill:#263238;stroke:#263238;stroke-linecap:round;stroke-linejoin:round;stroke-miterlimit:10;}
	.st12{fill:#4F4F4F;stroke:#263238;stroke-linecap:round;stroke-linejoin:round;stroke-miterlimit:10;}
	.st13{opacity:0.7;fill:#895D3F;}
	.st14{fill:#263238;}
	.st15{fill:#895D3F;}
	.st16{fill:#FFFFFF;stroke:#263238;stroke-width:2;stroke-linecap:round;stroke-linejoin:round;stroke-miterlimit:10;}
</style>
<g id="Background_Simple">
	<g>
		<path class="st0" d="M662.46,362.93c0,0,34.18-130.25-0.92-199.54C626.44,94.1,546.07,52.53,465.7,52.53
			s-80.37,24.94-141.34,48.04c-60.97,23.09-104.39-30.48-174.6-19.4C79.55,92.26,25.05,121.82,22.28,180.94
			c-2.77,59.12,27.71,90.53,31.41,125.64c3.7,35.1-28.64,48.96-20.32,98.85s29.56,55.43,29.56,55.43h614.32
			c0,0,21.25-26.79,0.92-55.43C657.85,376.78,662.46,362.93,662.46,362.93z"/>
		<path class="st1" d="M662.46,362.93c0,0,34.18-130.25-0.92-199.54C626.44,94.1,546.07,52.53,465.7,52.53
			s-80.37,24.94-141.34,48.04c-60.97,23.09-104.39-30.48-174.6-19.4C79.55,92.26,25.05,121.82,22.28,180.94
			c-2.77,59.12,27.71,90.53,31.41,125.64c3.7,35.1-28.64,48.96-20.32,98.85s29.56,55.43,29.56,55.43h614.32
			c0,0,21.25-26.79,0.92-55.43C657.85,376.78,662.46,362.93,662.46,362.93z"/>
	</g>
</g>
<g id="Picture">
	<g>
		<line class="st2" x1="440.77" y1="87.57" x2="440.77" y2="77.31"/>
		<line class="st2" x1="440.77" y1="460.1" x2="440.77" y2="96.59"/>
	</g>
	<g>
		<rect x="481" y="93" class="st3" width="45" height="72"/>
		<rect x="484.75" y="99" class="st3" width="37.5" height="60"/>
		<rect x="495.38" y="116" class="st3" width="16.25" height="26"/>
	</g>
</g>
<g id="Plants">
	<g>
		<path class="st4" d="M650.15,152.92c0,0-15.78-8.77-16.95,11.11c-1.17,19.87-4.09,244.07-4.09,244.07"/>
		<path class="st4" d="M625,165.78c0,0,12.87,123.66,7.03,240.57"/>
		<g>
			<path class="st5" d="M637.65,156.92c0,0-6.04,3.87-9.47-0.56c-3.44-4.43,2.32-12.54-2.75-16c-5.08-3.47-13.84,1.82-13.84,1.82
				s6.75,1.98,6.53,5.67c-0.22,3.68-3.47,5.08-3.9,3.47c-0.43-1.61-3.65-9.72-9.13-6.35c-5.48,3.37-6.32,8.6-6.32,8.6
				s12.75-1.36,13.53,3.44c0.77,4.8-5.23-0.84-10.49-1.15c-5.26-0.31-10.06,0.46-9.72,3.65c0.34,3.19-0.5,8.42-0.5,8.42
				s4.46-3.96,10.25-3.62c5.79,0.34,5.57,4.03,0.31,3.71c-5.26-0.31-9.78,4.7-9.78,4.7s4.8,8.2,10.89,12.26
				c6.1,4.06,8.3,2.6,9.01-0.52c0.71-3.13-0.93-11.14,2.76-10.93c3.68,0.22-6.1,13.9-1.4,14.7c4.71,0.81,8.48-0.56,9.72-3.65
				c1.24-3.1,1.24-3.1,1.24-3.1s-1.64-8.02-0.93-11.14c0.71-3.13,1.58,0.09,2.41,3.84c0.84,3.75,1.36,12.75,2.97,12.32
				c1.61-0.43,6.75-6.99,7.96-9.56c1.21-2.57-6.78-10.43-6.68-12.01c0.09-1.58,6.25,1.43,7.21,3.07c0.96,1.64,1.89,3.81,1.89,3.81
				s3.84-2.41,3.75-9.81C643.07,154.6,637.65,156.92,637.65,156.92z"/>
			<path class="st6" d="M637.65,156.92c0,0-6.04,3.87-9.47-0.56c-3.44-4.43,2.32-12.54-2.75-16c-5.08-3.47-13.84,1.82-13.84,1.82
				s6.75,1.98,6.53,5.67c-0.22,3.68-3.47,5.08-3.9,3.47c-0.43-1.61-3.65-9.72-9.13-6.35c-5.48,3.37-6.32,8.6-6.32,8.6
				s12.75-1.36,13.53,3.44c0.77,4.8-5.23-0.84-10.49-1.15c-5.26-0.31-10.06,0.46-9.72,3.65c0.34,3.19-0.5,8.42-0.5,8.42
				s4.46-3.96,10.25-3.62c5.79,0.34,5.57,4.03,0.31,3.71c-5.26-0.31-9.78,4.7-9.78,4.7s4.8,8.2,10.89,12.26
				c6.1,4.06,8.3,2.6,9.01-0.52c0.71-3.13-0.93-11.14,2.76-10.93c3.68,0.22-6.1,13.9-1.4,14.7c4.71,0.81,8.48-0.56,9.72-3.65
				c1.24-3.1,1.24-3.1,1.24-3.1s-1.64-8.02-0.93-11.14c0.71-3.13,1.58,0.09,2.41,3.84c0.84,3.75,1.36,12.75,2.97,12.32
				c1.61-0.43,6.75-6.99,7.96-9.56c1.21-2.57-6.78-10.43-6.68-12.01c0.09-1.58,6.25,1.43,7.21,3.07c0.96,1.64,1.89,3.81,1.89,3.81
				s3.84-2.41,3.75-9.81C643.07,154.6,637.65,156.92,637.65,156.92z"/>
			<path class="st3" d="M607.04,174.27c3.94-4.87,9.74-11.45,14.6-14.6"/>
			<path class="st3" d="M602.48,180.19c0,0,1.01-1.41,2.65-3.51"/>
			<path class="st3" d="M624.21,160.88c0,0,5.85,8.27,6.93,16.78"/>
			<path class="st3" d="M617.59,165.77c0,0,1.64-0.96,1.02,9.57"/>
			<path class="st3" d="M621.86,155.99c0,0,3.34-2.97,1.58-8.88"/>
			<line class="st3" x1="617.34" y1="161" x2="614.96" y2="156.64"/>
			<path class="st3" d="M612.33,165.46c0,0-7.58-5.73-12.32-6.01"/>
		</g>
		<g>
			<path class="st5" d="M659.17,141.32c0,0-0.24,8.68-7.02,9.1c-6.77,0.42-10.97-10.87-17.9-8.15c-6.93,2.72-7.61,15.1-7.61,15.1
				s6.58-5.41,10.12-2.68s2.72,6.93,0.81,6.27c-1.91-0.66-12.22-2.97-12.58,4.82c-0.36,7.79,4.31,12.19,4.31,12.19
				s7.33-13.7,12.66-11.2c5.33,2.5-4.4,4.67-8.3,9.72c-3.9,5.06-6.39,10.39-2.97,12.22c3.42,1.83,8.09,6.24,8.09,6.24
				s-0.93-7.16,3.36-12.73c4.29-5.56,7.83-2.83,3.93,2.22c-3.9,5.06-1.96,13-1.96,13s11.48,0.79,19.7-2.55
				c8.22-3.34,8.26-6.53,5.61-9.38c-2.64-2.84-11.79-6.67-9.06-10.21c2.73-3.54,9.76,15.58,13.77,11.42
				c4.01-4.16,5.23-8.87,2.97-12.22c-2.25-3.35-2.25-3.35-2.25-3.35s-9.14-3.82-11.79-6.67c-2.64-2.84,1.17-1.52,5.49,0.2
				c4.32,1.72,13.7,7.33,14.36,5.43c0.66-1.91-2.4-11.53-4.15-14.49c-1.75-2.96-15.07-0.33-16.58-1.5
				c-1.52-1.17,5.69-5.29,7.99-5.13c2.3,0.16,5.1,0.71,5.1,0.71s0.2-5.49-7.27-10.44C660.54,134.32,659.17,141.32,659.17,141.32z"/>
			<path class="st7" d="M659.17,141.32c0,0-0.24,8.68-7.02,9.1c-6.77,0.42-10.97-10.87-17.9-8.15c-6.93,2.72-7.61,15.1-7.61,15.1
				s6.58-5.41,10.12-2.68s2.72,6.93,0.81,6.27c-1.91-0.66-12.22-2.97-12.58,4.82c-0.36,7.79,4.31,12.19,4.31,12.19
				s7.33-13.7,12.66-11.2c5.33,2.5-4.4,4.67-8.3,9.72c-3.9,5.06-6.39,10.39-2.97,12.22c3.42,1.83,8.09,6.24,8.09,6.24
				s-0.93-7.16,3.36-12.73c4.29-5.56,7.83-2.83,3.93,2.22c-3.9,5.06-1.96,13-1.96,13s11.48,0.79,19.7-2.55
				c8.22-3.34,8.26-6.53,5.61-9.38c-2.64-2.84-11.79-6.67-9.06-10.21c2.73-3.54,9.76,15.58,13.77,11.42
				c4.01-4.16,5.23-8.87,2.97-12.22c-2.25-3.35-2.25-3.35-2.25-3.35s-9.14-3.82-11.79-6.67c-2.64-2.84,1.17-1.52,5.49,0.2
				c4.32,1.72,13.7,7.33,14.36,5.43c0.66-1.91-2.4-11.53-4.15-14.49c-1.75-2.96-15.07-0.33-16.58-1.5
				c-1.52-1.17,5.69-5.29,7.99-5.13c2.3,0.16,5.1,0.71,5.1,0.71s0.2-5.49-7.27-10.44C660.54,134.32,659.17,141.32,659.17,141.32z"/>
			<path class="st3" d="M655.67,183.79c-2.19-7.26-4.83-17.56-4.66-24.57"/>
			<path class="st3" d="M658.49,192.4c0,0-0.72-1.97-1.71-5.05"/>
			<path class="st3" d="M653.97,157.47c0,0,12.26-0.22,21.52,4.5"/>
			<path class="st3" d="M654.35,167.44c0,0,0.16-2.3,10.27,5.5"/>
			<path class="st3" d="M647.47,156.49c0,0-0.7-5.37-7.82-7.64"/>
			<line class="st3" x1="649.41" y1="164.44" x2="643.42" y2="163.85"/>
			<path class="st3" d="M650.46,172.5c0,0-10.9,3.69-14.41,8.24"/>
		</g>
		<path class="st4" d="M586.44,199.1c0,0,34.49,117.81,33.9,206.08"/>
		<g>
			<path class="st5" d="M628.96,193.08c0,0-1.1,9.99-8.96,9.84c-7.86-0.15-11.63-13.58-19.89-11.1c-8.26,2.48-10.2,16.7-10.2,16.7
				s8.11-5.62,11.94-2.13c3.83,3.48,2.48,8.26,0.34,7.31c-2.14-0.95-13.82-4.58-14.97,4.37c-1.15,8.95,3.82,14.47,3.82,14.47
				s9.75-15.11,15.67-11.73c5.92,3.38-5.52,4.97-10.5,10.44c-4.97,5.47-8.36,11.38-4.58,13.82c3.78,2.44,8.75,7.96,8.75,7.96
				s-0.39-8.35,5.08-14.37c5.47-6.01,9.3-2.53,4.32,2.94c-4.97,5.47-3.49,14.82-3.49,14.82s13.18,1.99,22.97-1.08
				c9.8-3.08,10.15-6.76,7.36-10.29c-2.78-3.53-12.97-8.81-9.49-12.63c3.48-3.83,9.79,18.9,14.81,14.48
				c5.02-4.42,6.87-9.74,4.58-13.82c-2.29-4.08-2.29-4.08-2.29-4.08s-10.19-5.28-12.97-8.81c-2.78-3.53,1.49-1.64,6.31,0.75
				c4.82,2.39,15.11,9.75,16.06,7.62c0.95-2.14-1.68-13.53-3.42-17.11c-1.74-3.58-17.35-1.8-18.99-3.29
				c-1.64-1.49,7.06-5.57,9.7-5.17c2.64,0.4,5.82,1.3,5.82,1.3s0.75-6.31-7.4-12.73C631.2,185.12,628.96,193.08,628.96,193.08z"/>
			<path class="st7" d="M628.96,193.08c0,0-1.1,9.99-8.96,9.84c-7.86-0.15-11.63-13.58-19.89-11.1c-8.26,2.48-10.2,16.7-10.2,16.7
				s8.11-5.62,11.94-2.13c3.83,3.48,2.48,8.26,0.34,7.31c-2.14-0.95-13.82-4.58-14.97,4.37c-1.15,8.95,3.82,14.47,3.82,14.47
				s9.75-15.11,15.67-11.73c5.92,3.38-5.52,4.97-10.5,10.44c-4.97,5.47-8.36,11.38-4.58,13.82c3.78,2.44,8.75,7.96,8.75,7.96
				s-0.39-8.35,5.08-14.37c5.47-6.01,9.3-2.53,4.32,2.94c-4.97,5.47-3.49,14.82-3.49,14.82s13.18,1.99,22.97-1.08
				c9.8-3.08,10.15-6.76,7.36-10.29c-2.78-3.53-12.97-8.81-9.49-12.63c3.48-3.83,9.79,18.9,14.81,14.48
				c5.02-4.42,6.87-9.74,4.58-13.82c-2.29-4.08-2.29-4.08-2.29-4.08s-10.19-5.28-12.97-8.81c-2.78-3.53,1.49-1.64,6.31,0.75
				c4.82,2.39,15.11,9.75,16.06,7.62c0.95-2.14-1.68-13.53-3.42-17.11c-1.74-3.58-17.35-1.8-18.99-3.29
				c-1.64-1.49,7.06-5.57,9.7-5.17c2.64,0.4,5.82,1.3,5.82,1.3s0.75-6.31-7.4-12.73C631.2,185.12,628.96,193.08,628.96,193.08z"/>
			<path class="st3" d="M620.92,241.75c-1.84-8.58-3.91-20.71-3.06-28.79"/>
			<path class="st3" d="M623.36,251.95c0,0-0.64-2.34-1.5-5.98"/>
			<path class="st3" d="M621.44,211.22c0,0,14.17,0.9,24.41,7.22"/>
			<path class="st3" d="M620.94,222.76c0,0,0.4-2.64,11.33,7.32"/>
			<path class="st3" d="M614.03,209.48c0,0-0.3-6.27-8.3-9.55"/>
			<line class="st3" x1="615.52" y1="218.83" x2="608.66" y2="217.58"/>
			<path class="st3" d="M615.96,228.23c0,0-12.93,3.23-17.41,8.15"/>
		</g>
		<g>
			<path class="st5" d="M628.96,278.82c0,0-1.1,9.99-8.96,9.84c-7.86-0.15-11.63-13.58-19.89-11.1c-8.26,2.48-10.2,16.7-10.2,16.7
				s8.11-5.62,11.94-2.13c3.83,3.48,2.48,8.26,0.34,7.31c-2.14-0.95-13.82-4.58-14.97,4.37c-1.15,8.95,3.82,14.47,3.82,14.47
				s9.75-15.11,15.67-11.73c5.92,3.38-5.52,4.97-10.5,10.44c-4.97,5.47-8.36,11.38-4.58,13.82c3.78,2.44,8.75,7.96,8.75,7.96
				s-0.39-8.35,5.08-14.37c5.47-6.01,9.3-2.53,4.32,2.94c-4.97,5.47-3.49,14.82-3.49,14.82s13.18,1.99,22.97-1.08
				c9.8-3.08,10.15-6.76,7.36-10.29c-2.78-3.53-12.97-8.81-9.49-12.63c3.48-3.83,9.79,18.9,14.81,14.48
				c5.02-4.42,6.87-9.74,4.58-13.82c-2.29-4.08-2.29-4.08-2.29-4.08s-10.19-5.28-12.97-8.81c-2.78-3.53,1.49-1.64,6.31,0.75
				c4.82,2.39,15.11,9.75,16.06,7.62c0.95-2.14-1.68-13.53-3.42-17.11c-1.74-3.58-17.35-1.8-18.99-3.29
				c-1.64-1.49,7.06-5.57,9.7-5.17c2.64,0.4,5.82,1.3,5.82,1.3s0.75-6.31-7.4-12.73C631.2,270.86,628.96,278.82,628.96,278.82z"/>
			<path class="st7" d="M628.96,278.82c0,0-1.1,9.99-8.96,9.84c-7.86-0.15-11.63-13.58-19.89-11.1c-8.26,2.48-10.2,16.7-10.2,16.7
				s8.11-5.62,11.94-2.13c3.83,3.48,2.48,8.26,0.34,7.31c-2.14-0.95-13.82-4.58-14.97,4.37c-1.15,8.95,3.82,14.47,3.82,14.47
				s9.75-15.11,15.67-11.73c5.92,3.38-5.52,4.97-10.5,10.44c-4.97,5.47-8.36,11.38-4.58,13.82c3.78,2.44,8.75,7.96,8.75,7.96
				s-0.39-8.35,5.08-14.37c5.47-6.01,9.3-2.53,4.32,2.94c-4.97,5.47-3.49,14.82-3.49,14.82s13.18,1.99,22.97-1.08
				c9.8-3.08,10.15-6.76,7.36-10.29c-2.78-3.53-12.97-8.81-9.49-12.63c3.48-3.83,9.79,18.9,14.81,14.48
				c5.02-4.42,6.87-9.74,4.58-13.82c-2.29-4.08-2.29-4.08-2.29-4.08s-10.19-5.28-12.97-8.81c-2.78-3.53,1.49-1.64,6.31,0.75
				c4.82,2.39,15.11,9.75,16.06,7.62c0.95-2.14-1.68-13.53-3.42-17.11c-1.74-3.58-17.35-1.8-18.99-3.29
				c-1.64-1.49,7.06-5.57,9.7-5.17c2.64,0.4,5.82,1.3,5.82,1.3s0.75-6.31-7.4-12.73C631.2,270.86,628.96,278.82,628.96,278.82z"/>
			<path class="st3" d="M620.92,327.49c-1.84-8.58-3.91-20.71-3.06-28.79"/>
			<path class="st3" d="M623.36,337.69c0,0-0.64-2.34-1.5-5.98"/>
			<path class="st3" d="M621.44,296.97c0,0,14.17,0.9,24.41,7.22"/>
			<path class="st3" d="M620.94,308.5c0,0,0.4-2.64,11.33,7.32"/>
			<path class="st3" d="M614.03,295.22c0,0-0.3-6.27-8.3-9.55"/>
			<line class="st3" x1="615.52" y1="304.57" x2="608.66" y2="303.33"/>
			<path class="st3" d="M615.96,313.97c0,0-12.93,3.23-17.41,8.15"/>
		</g>
		<path class="st4" d="M599.88,268.66c0,0,22.21,111.97,24.55,137.1l-4.68-179.19"/>
		<path class="st4" d="M653.66,256.38c-29.23-5.26-29.23,149.38-29.23,149.38"/>
		<path class="st4" d="M627.94,405.17c0,0-16.95-218.35,32.15-218.35"/>
		<g>
			<path class="st8" d="M642.52,252.84c-3.99-4.49-12.48-4.49-17.47,6.99c-4.99,11.48-0.5,9.48-0.5,9.48s9.48-2.99,15.47-4.99
				c5.99-2,13.97-6.99,14.47-3.99c0.5,2.99-3.99,5.99-9.48,6.99c-5.49,1-19.96,4.99-18.46,7.98c1.5,2.99,4.99,11.98,4.99,11.98
				s6.99-5.99,13.47-9.98c6.49-3.99,10.48-2.5,6.99,2c-3.49,4.49-13.47,9.48-11.48,15.47c2,5.99,13.97,13.47,13.97,13.47
				s1.5-12.48,4.99-16.47c3.49-3.99,3.49,0.5,2.5,7.49c-1,6.99-1,8.98-1,8.98l13.97,4.99c0,0,4.99-7.49,7.49-9.98
				c2.5-2.49,2.5-2.49,2.5-2.49s-10.98-9.48-11.48-15.47c-0.5-5.99,7.49,0,9.98,1c2.5,1,6.49,7.98,6.49,7.98s2.5-11.48,2.99-15.47
				c0.5-3.99,0.5-3.99,0.5-3.99s-10.48-3.99-14.47-3.99s-5.99,2.99-5.99-1c0-3.99,3.99-6.49,8.48-5.99
				c4.49,0.5,11.98,2.99,11.98,2.99s2.99-2.5,2-9.98c-1-7.49-3.49-7.49-9.48-5.49c-5.99,2-9.98,6.49-14.47,6.49
				c-4.49,0-2-5.49,1-6.99c2.99-1.5,10.48-4.49,11.98-4.99c1.5-0.5-7.98-7.49-12.98-8.48c-4.99-1-11.45,2.52-10.98,7.49
				C661.48,255.33,646.51,257.33,642.52,252.84z"/>
			<path class="st3" d="M674.64,304.22c0.15,1.5,0.26,3.01,0.31,4.51"/>
			<path class="st3" d="M664.62,268.39c3.5,8.1,7.56,19.27,9.39,30.92"/>
			<path class="st3" d="M662.82,264.39c-2.47-5.32-4.33-8.56-4.33-8.56s4.49-2,6.49-5.99c2-3.99,4.99-5.99,4.99-5.99"/>
			<path class="st3" d="M641.02,272.8c0,0,17.97-7.49,17.97-5.99"/>
			<path class="st3" d="M668.97,263.32c0,0,7.98-3.99,14.97-3.99"/>
			<path class="st3" d="M665.97,275.29c0,0-4.49,3.49-9.48,9.48c-4.99,5.99-6.99,11.48-6.99,11.48"/>
			<path class="st3" d="M671.46,277.29c0,0,10.48-2.99,15.97,2"/>
		</g>
		<g>
			<path class="st8" d="M690.45,209.86c-5.43-3.21-11.44-3.28-14.39-6.68c-2.94-3.39,2.84-5.11,5.93-3.83
				c3.09,1.28,10.26,4.97,11.62,5.77c1.36,0.8,0.42-10.94-2.1-15.36c-2.52-4.42-9.41-7-12.85-3.38c-7.26,7.62-18.58-2.37-17.81-8.33
				c0.77-5.96-4.79-12.37-16.73-8.61c-11.94,3.76-7.49,5.84-7.49,5.84s8.48,5.2,13.91,8.41c5.43,3.21,14.44,5.97,12.5,8.31
				c-1.93,2.34-7.14,0.91-11.49-2.58c-4.35-3.49-16.85-11.8-18.13-8.71c-1.28,3.09-5.77,11.62-5.77,11.62s9.1,1.35,16.37,3.63
				c7.27,2.28,8.75,6.28,3.07,6.58c-5.68,0.31-15.99-3.96-19.21,1.47c-3.21,5.43-1.01,19.38-1.01,19.38s10.4-7.05,15.71-7.03
				c5.3,0.02,1.91,2.97-4.02,6.79c-5.93,3.83-7.44,5.13-7.44,5.13l5.39,13.82c0,0,8.92-1.14,12.44-0.89
				c3.52,0.25,3.52,0.25,3.52,0.25s-0.04-14.51,4.16-18.81c4.19-4.3,4.91,5.65,5.79,8.19c0.88,2.54-1.78,10.13-1.78,10.13
				s10.3-5.64,13.64-7.88c3.34-2.24,3.34-2.24,3.34-2.24s-3.86-10.53-6.47-13.55c-2.62-3.01-6.19-2.56-3.17-5.18
				c3.01-2.62,7.52-1.24,10.08,2.48c2.57,3.72,5.59,11.01,5.59,11.01s3.85,0.63,8.85-5.04
				C697.52,214.96,695.88,213.07,690.45,209.86z M643.22,225.83c-3.99-2,5.49-5.99,5.49-5.99
				C652.2,219.35,647.21,227.83,643.22,225.83z M649.94,207.2c-1.7-0.85,3.4-2.55,3.4-2.55
				C660.72,206.07,651.64,208.05,649.94,207.2z"/>
			<path class="st3" d="M643.11,236c-1.04,1.1-2.1,2.16-3.2,3.19"/>
			<path class="st3" d="M663.59,204.94c-3.82,7.96-9.6,18.34-17.19,27.37"/>
			<path class="st3" d="M665.44,200.96c2.39-5.35,3.62-8.88,3.62-8.88s4.45,2.08,8.77,0.97c4.32-1.11,7.79-0.16,7.79-0.16"/>
			<path class="st3" d="M661.1,199.65c1.13-0.98-16.3-9.64-16.3-9.64"/>
			<path class="st3" d="M670.28,204.9c0,0,8.25,3.41,12.83,8.69"/>
			<path class="st3" d="M659.27,210.49c0,0-5.58-1.1-13.38-0.94c-7.79,0.16-13.25,2.25-13.25,2.25"/>
			<path class="st3" d="M661.36,215.94c0,0,9.13,5.95,8.96,13.37"/>
		</g>
		<g>
			<path class="st8" d="M612.9,279.01c-4.37-2.59-9.21-2.64-11.58-5.37c-2.37-2.73,2.28-4.11,4.77-3.08c2.49,1.03,8.26,4,9.35,4.65
				c1.09,0.65,0.34-8.8-1.69-12.36c-2.03-3.56-7.57-5.63-10.34-2.72c-5.84,6.14-14.95-1.91-14.33-6.71
				c0.62-4.8-3.85-9.95-13.46-6.93c-9.61,3.02-6.03,4.7-6.03,4.7s6.82,4.18,11.19,6.77s11.62,4.81,10.06,6.69
				c-1.56,1.88-5.75,0.73-9.25-2.08c-3.5-2.81-13.56-9.5-14.59-7.01c-1.03,2.49-4.65,9.35-4.65,9.35s7.32,1.09,13.17,2.92
				c5.85,1.84,7.05,5.05,2.47,5.3c-4.57,0.25-12.87-3.19-15.46,1.19c-2.59,4.37-0.82,15.6-0.82,15.6s8.37-5.67,12.64-5.66
				c4.27,0.02,1.54,2.39-3.23,5.47c-4.77,3.08-5.99,4.13-5.99,4.13l4.34,11.12c0,0,7.18-0.92,10.01-0.72c2.83,0.2,2.83,0.2,2.83,0.2
				s-0.03-11.67,3.35-15.14c3.38-3.46,3.95,4.55,4.66,6.59c0.71,2.04-1.43,8.15-1.43,8.15s8.29-4.54,10.98-6.34
				c2.69-1.8,2.69-1.8,2.69-1.8s-3.1-8.47-5.21-10.9c-2.11-2.43-4.98-2.06-2.55-4.17c2.43-2.11,6.05-1,8.11,2
				c2.07,2.99,4.5,8.86,4.5,8.86s3.1,0.5,7.12-4.05C618.59,283.11,617.27,281.59,612.9,279.01z M574.9,291.86
				c-3.21-1.61,4.42-4.82,4.42-4.82C582.13,286.64,578.11,293.47,574.9,291.86z M580.31,276.87c-1.37-0.68,2.74-2.05,2.74-2.05
				C588.98,275.96,581.68,277.55,580.31,276.87z"/>
			<path class="st3" d="M574.81,300.04c-0.83,0.88-1.69,1.74-2.58,2.57"/>
			<path class="st3" d="M591.29,275.05c-3.07,6.4-7.72,14.76-13.84,22.02"/>
			<path class="st3" d="M592.78,271.84c1.93-4.31,2.91-7.15,2.91-7.15s3.58,1.68,7.06,0.78c3.48-0.89,6.27-0.13,6.27-0.13"/>
			<path class="st3" d="M576.17,263.03c0,0,14.03,6.97,13.12,7.76"/>
			<path class="st3" d="M596.67,275.01c0,0,6.64,2.75,10.32,6.99"/>
			<path class="st3" d="M587.82,279.51c0,0-4.49-0.89-10.76-0.76c-6.27,0.13-10.66,1.81-10.66,1.81"/>
			<path class="st3" d="M589.5,283.9c0,0,7.35,4.79,7.21,10.76"/>
		</g>
		<g>
			<path class="st8" d="M595.07,196.6c0,0-5.49,3.99-8.98,0c-3.49-3.99,1.5-11.98-3.49-14.97c-4.99-2.99-12.98,2.5-12.98,2.5
				s6.49,1.5,6.49,4.99s-2.99,4.99-3.49,3.49c-0.5-1.5-3.99-8.98-8.98-5.49c-4.99,3.49-5.49,8.48-5.49,8.48s11.98-2,12.97,2.5
				c1,4.49-4.99-0.5-9.98-0.5c-4.99,0-9.48,1-8.98,3.99c0.5,2.99,0,7.98,0,7.98s3.99-3.99,9.48-3.99c5.49,0,5.49,3.49,0.5,3.49
				c-4.99,0-8.98,4.99-8.98,4.99s4.99,7.49,10.98,10.98c5.99,3.49,7.98,2,8.48-1c0.5-2.99-1.5-10.48,2-10.48
				c3.49,0-4.99,13.47-0.5,13.97c4.49,0.5,7.98-1,8.98-3.99c1-2.99,1-2.99,1-2.99s-2-7.49-1.5-10.48c0.5-2.99,1.5,0,2.5,3.49
				c1,3.49,2,11.98,3.49,11.48c1.5-0.5,5.99-6.99,6.99-9.48c1-2.5-6.99-9.48-6.99-10.98s5.99,1,6.99,2.5c1,1.5,2,3.49,2,3.49
				s3.49-2.5,2.99-9.48C600.06,194.11,595.07,196.6,595.07,196.6z"/>
			<path class="st3" d="M567.12,214.7c3.45-4.82,8.56-11.37,12.98-14.61"/>
			<path class="st3" d="M563.14,220.55c0,0,0.88-1.38,2.31-3.47"/>
			<path class="st3" d="M582.6,201.09c0,0,5.99,7.49,7.49,15.47"/>
			<path class="st3" d="M576.61,206.08c0,0,1.5-1,1.5,8.98"/>
			<path class="st3" d="M580.1,196.6c0,0,2.99-2.99,1-8.48"/>
			<line class="st3" x1="576.11" y1="201.59" x2="573.62" y2="197.6"/>
			<path class="st3" d="M571.62,206.08c0,0-7.49-4.99-11.98-4.99"/>
		</g>
		<g>
			<path class="st7" d="M649.73,328.48c0,0-5.49,3.99-8.98,0c-3.49-3.99,1.5-11.98-3.49-14.97c-4.99-2.99-12.97,2.5-12.97,2.5
				s6.49,1.5,6.49,4.99c0,3.49-2.99,4.99-3.49,3.49c-0.5-1.5-3.99-8.98-8.98-5.49c-4.99,3.49-5.49,8.48-5.49,8.48s11.98-2,12.97,2.5
				c1,4.49-4.99-0.5-9.98-0.5c-4.99,0-9.48,1-8.98,3.99c0.5,2.99,0,7.98,0,7.98s3.99-3.99,9.48-3.99c5.49,0,5.49,3.49,0.5,3.49
				c-4.99,0-8.98,4.99-8.98,4.99s4.99,7.49,10.98,10.98c5.99,3.49,7.98,2,8.48-1c0.5-2.99-1.5-10.48,2-10.48
				c3.49,0-4.99,13.47-0.5,13.97c4.49,0.5,7.98-1,8.98-3.99c1-2.99,1-2.99,1-2.99s-2-7.49-1.5-10.48c0.5-2.99,1.5,0,2.5,3.49
				c1,3.49,2,11.98,3.49,11.48c1.5-0.5,5.99-6.99,6.99-9.48c1-2.5-6.99-9.48-6.99-10.98s5.99,1,6.99,2.5c1,1.5,2,3.49,2,3.49
				s3.49-2.5,2.99-9.48C654.72,325.98,649.73,328.48,649.73,328.48z"/>
			<path class="st3" d="M621.77,346.58c3.45-4.82,8.56-11.37,12.98-14.61"/>
			<path class="st3" d="M617.79,352.43c0,0,0.88-1.38,2.31-3.47"/>
			<path class="st3" d="M637.25,332.97c0,0,5.99,7.49,7.49,15.47"/>
			<path class="st3" d="M631.27,337.96c0,0,1.5-1,1.5,8.98"/>
			<path class="st3" d="M634.76,328.48c0,0,2.99-2.99,1-8.48"/>
			<line class="st3" x1="630.77" y1="333.47" x2="628.27" y2="329.48"/>
			<path class="st3" d="M626.28,337.96c0,0-7.49-4.99-11.98-4.99"/>
		</g>
		<rect x="606.89" y="403.47" class="st9" width="38.58" height="55.53"/>
	</g>
</g>
<g id="Furniture">
	<g>
		<rect x="67.76" y="379.03" class="st2" width="283.9" height="81.14"/>
		<rect x="108.93" y="379.03" class="st10" width="274.36" height="81.14"/>
		<g>
			<g>
				<polyline class="st3" points="139.49,386.34 199.31,386.34 199.31,417.32 180.56,417.32 				"/>
				<polyline class="st3" points="176.39,417.32 115.39,417.32 115.39,386.34 135.64,386.34 				"/>
			</g>
			<g>
				<polyline class="st3" points="158.42,456.06 115.39,456.06 115.39,425.07 126.66,425.07 				"/>
				<polyline class="st3" points="131.47,425.07 199.31,425.07 199.31,456.06 163.88,456.06 				"/>
			</g>
			<g>
				<polyline class="st3" points="232.54,417.32 204.79,417.32 204.79,386.34 288.72,386.34 288.72,417.32 238.32,417.32 				"/>
			</g>
			<g>
				<polyline class="st3" points="247.94,425.07 288.72,425.07 288.72,456.06 204.79,456.06 204.79,425.07 242.81,425.07 				"/>
			</g>
			<g>
				<polyline class="st3" points="294.2,397.89 294.2,386.34 378.13,386.34 378.13,417.32 294.2,417.32 294.2,401.42 				"/>
			</g>
			<g>
				<polyline class="st3" points="302.49,425.07 378.13,425.07 378.13,456.06 294.2,456.06 294.2,425.07 299.6,425.07 				"/>
			</g>
		</g>
	</g>
	<g>
		<path class="st8" d="M112.13,358.65c0,5.43-2.11,10.36-5.56,14.02c-4.21,4.49-10.43,7.06-17.22,6.31
			c-9.5-1.05-17.12-8.78-18.03-18.31c-0.61-6.29,1.64-12.07,5.62-16.19c0.84-0.89,1.78-1.7,2.78-2.42c3.07-2.22,4.83-5.84,4.83-9.64
			v-0.71c0-6.24-1.06-12.44-3.13-18.32h20.53l-0.16,0.47c-1.97,5.75-2.98,11.78-2.98,17.86v0.7c0,3.83,1.82,7.43,4.92,9.69
			C108.82,345.84,112.13,351.85,112.13,358.65z"/>
		<path class="st8" d="M114.48,367.78c3.03,6.04,8.98,10.43,15.96,11.2c8.98,0.99,16.96-3.84,20.64-11.2H114.48z"/>
		<g>
			<rect x="157.03" y="334.04" class="st11" width="37.45" height="44.38"/>
			<rect x="166.66" y="334.04" class="st11" width="37.45" height="44.38"/>
			<g>
				<circle class="st12" cx="187.19" cy="346.54" r="9.26"/>
				<path class="st11" d="M190.07,346.54c0,1.59-1.29,2.87-2.87,2.87c-1.59,0-2.87-1.29-2.87-2.87c0-1.59,1.29-2.87,2.87-2.87
					C188.78,343.67,190.07,344.95,190.07,346.54z"/>
			</g>
			<g>
				<circle class="st12" cx="187.19" cy="367.93" r="9.26"/>
				<circle class="st11" cx="187.19" cy="367.93" r="2.87"/>
			</g>
		</g>
		<g>
			<line class="st3" x1="82.93" y1="317.78" x2="100.34" y2="317.78"/>
			<line class="st3" x1="83.87" y1="323.58" x2="99.4" y2="323.58"/>
			<line class="st3" x1="84.5" y1="329.38" x2="98.77" y2="329.38"/>
			<line class="st3" x1="84.34" y1="335.19" x2="98.93" y2="335.19"/>
			<line class="st3" x1="80.89" y1="340.99" x2="102.22" y2="340.99"/>
		</g>
		<path class="st11" d="M106.57,372.67c-4.21,4.49-10.43,7.06-17.22,6.31c-9.5-1.05-17.12-8.78-18.03-18.31
			c-0.61-6.29,1.64-12.07,5.62-16.19C78.96,351.33,85.67,366.25,106.57,372.67z"/>
	</g>
</g>
<g id="Table">
	<g>
		<path class="st8" d="M232.48,358.12c5.85,11.64,17.3,20.09,30.76,21.58c17.31,1.91,32.68-7.4,39.76-21.58H232.48z"/>
		<g>
			<path class="st11" d="M358.21,378.05H261v82.13h97.31v-81.96C358.31,378.12,358.27,378.05,358.21,378.05z M355.02,454.64h-90.74
				v-71.06h90.65c0.05,0,0.09,0.07,0.09,0.16V454.64z"/>
			<path class="st11" d="M290.75,378.05h-97.21v82.13h97.31v-81.96C290.84,378.12,290.8,378.05,290.75,378.05z M287.56,454.64
				h-90.74v-71.06h90.65c0.05,0,0.09,0.07,0.09,0.16V454.64z"/>
			<path class="st2" d="M361.3,385.34H191.15v-7.29h169.98c0.1,0,0.18,0.08,0.18,0.18V385.34z"/>
			<path class="st11" d="M361.3,385.34h-73.87v-7.29h73.69c0.1,0,0.18,0.08,0.18,0.18V385.34z"/>
		</g>
	</g>
</g>
<g id="TV">
	<g>
		<g>
			<rect x="61.2" y="136.98" class="st11" width="28.29" height="95"/>
			<rect x="66.03" y="136.98" class="st11" width="28.29" height="95"/>
			<g>
				
					<ellipse transform="matrix(0.887 -0.4618 0.4618 0.887 -59.8365 54.4531)" class="st12" cx="81.33" cy="149.47" rx="9.26" ry="9.26"/>
				<path class="st11" d="M84.2,149.47c0,1.59-1.29,2.87-2.87,2.87c-1.59,0-2.87-1.29-2.87-2.87c0-1.59,1.29-2.87,2.87-2.87
					C82.92,146.6,84.2,147.89,84.2,149.47z"/>
			</g>
			<g>
				<circle class="st12" cx="81.33" cy="170.86" r="9.26"/>
				<circle class="st11" cx="81.33" cy="170.86" r="2.87"/>
			</g>
			<g>
				
					<ellipse transform="matrix(0.887 -0.4618 0.4618 0.887 -80.3594 59.4757)" class="st12" cx="81.33" cy="193.91" rx="9.26" ry="9.26"/>
				<path class="st11" d="M84.2,193.91c0,1.59-1.29,2.87-2.87,2.87c-1.59,0-2.87-1.29-2.87-2.87c0-1.59,1.29-2.87,2.87-2.87
					C82.92,191.04,84.2,192.33,84.2,193.91z"/>
			</g>
			<g>
				<circle class="st12" cx="81.33" cy="215.3" r="9.26"/>
				<path class="st11" d="M84.2,215.3c0,1.59-1.29,2.87-2.87,2.87c-1.59,0-2.87-1.29-2.87-2.87c0-1.59,1.29-2.87,2.87-2.87
					C82.92,212.43,84.2,213.72,84.2,215.3z"/>
			</g>
		</g>
		<g>
			<rect x="360.11" y="136.98" class="st11" width="28.29" height="95"/>
			<rect x="364.95" y="136.98" class="st11" width="28.29" height="95"/>
			<g>
				
					<ellipse transform="matrix(0.9248 -0.3805 0.3805 0.9248 -28.273 155.9402)" class="st12" cx="380.24" cy="149.47" rx="9.26" ry="9.26"/>
				<path class="st11" d="M383.12,149.47c0,1.59-1.29,2.87-2.87,2.87c-1.59,0-2.87-1.29-2.87-2.87c0-1.59,1.29-2.87,2.87-2.87
					C381.83,146.6,383.12,147.89,383.12,149.47z"/>
			</g>
			<g>
				<circle class="st12" cx="380.24" cy="170.86" r="9.26"/>
				<circle class="st11" cx="380.24" cy="170.86" r="2.87"/>
			</g>
			<g>
				
					<ellipse transform="matrix(0.9248 -0.3805 0.3805 0.9248 -45.1839 159.2835)" class="st12" cx="380.24" cy="193.91" rx="9.26" ry="9.26"/>
				<path class="st11" d="M383.12,193.91c0,1.59-1.29,2.87-2.87,2.87c-1.59,0-2.87-1.29-2.87-2.87c0-1.59,1.29-2.87,2.87-2.87
					C381.83,191.04,383.12,192.33,383.12,193.91z"/>
			</g>
			<g>
				<circle class="st12" cx="380.24" cy="215.3" r="9.26"/>
				<path class="st11" d="M383.12,215.3c0,1.59-1.29,2.87-2.87,2.87c-1.59,0-2.87-1.29-2.87-2.87c0-1.59,1.29-2.87,2.87-2.87
					C381.83,212.43,383.12,213.72,383.12,215.3z"/>
			</g>
		</g>
		<g>
			<path class="st11" d="M317.86,303.11H146.45c-1.7,0-3.08-1.38-3.08-3.08v-11.6c0-1.7,1.38-3.08,3.08-3.08h171.41
				c1.7,0,3.08,1.38,3.08,3.08v11.6C320.94,301.73,319.56,303.11,317.86,303.11z"/>
			<path class="st10" d="M149.68,303.11h168.38c0.03,0,0.07-0.01,0.1-0.01v-5.55H149.68V303.11z"/>
		</g>
		<g>
			<rect x="118.14" y="122.74" class="st11" width="230.84" height="151.4"/>
			<rect x="124.68" y="128.35" class="st10" width="217.75" height="140.18"/>
		</g>
	</g>
</g>
<g id="Characters">
	<g>
		<g>
			<g>
				<path class="st13" d="M533.24,219.79c0,0-6.98,7.94-6.98,10.16s-1.9,4.44-1.9,4.44s-7.62,7.94-6.67,9.84
					c0.95,1.9,3.49,2.54,3.49,2.54s-4.76,15.24-1.9,17.14c2.86,1.9,11.11-0.32,11.11-0.32l-0.32,12.7c0,0,11.11-4.76,18.1-2.86
					c6.98,1.9,6.98,1.9,6.98,1.9s-0.95-10.79,0.32-12.7c1.27-1.9,15.87-8.89,17.78-19.05c1.9-10.16,0.95-20.32-9.21-26.03
					c-10.16-5.71-16.51-6.35-16.51-6.35s3.49-5.71-0.95-6.98c-4.44-1.27-16.19,2.86-16.83,8.25S533.24,219.79,533.24,219.79z"/>
				<path class="st11" d="M519.27,263.92c0,0,1.84-0.35,6.14-1.89s7.4-3.1,7.4-3.1l-2.06,12.04l-0.36-7.37
					C530.38,263.6,522.08,266.16,519.27,263.92z"/>
				<path class="st14" d="M529.04,235.59c-0.35,1.37-1.19,2.35-1.88,2.17c-0.69-0.17-0.96-1.43-0.61-2.8
					c0.35-1.37,1.19-2.35,1.88-2.17C529.11,232.96,529.38,234.22,529.04,235.59z"/>
				<path class="st3" d="M526.26,229.95c0,0,3.81-3.81,5.08,0.32"/>
				<path class="st3" d="M522.45,250.58c0,0,5.08-0.95,7.94-4.76"/>
			</g>
			<path class="st2" d="M573.56,295.34c0,0-6.98-14.29-14.6-19.05c-7.62-4.76-18.41-6.03-29.52-2.22
				c-11.11,3.81-19.68,20.63-20.95,25.4c-1.27,4.76-4.13,9.84-4.13,9.84h70.79L573.56,295.34z"/>
			<path class="st11" d="M573.24,243.6c1.9-10.16,0.95-20.32-9.21-26.03c-10.16-5.71-16.51-6.35-16.51-6.35s3.49-5.71-0.95-6.98
				c-4.44-1.27-16.19,2.86-16.83,8.25s3.49,7.3,3.49,7.3s5.08,2.22,7.3,2.22c2.22,0-4.44,5.4-4.44,7.94c0,2.54,5.71,5.4,5.71,5.4
				s-4.76,7.3-2.86,8.89c1.9,1.59,4.13,1.59,5.08,0.32c0.95-1.27,6.67-9.52,9.52-4.76c2.86,4.76-1.59,12.38-3.49,13.65
				c-1.9,1.27-6.35,1.9-6.35,1.9s4.46,8.11,11.12,10.88c0.07-1.64,0.25-3,0.63-3.58C556.73,260.74,571.34,253.76,573.24,243.6z"/>
		</g>
		<g>
			<g>
				<path class="st11" d="M366.97,264.02l24.99,21.66c0.37,0.32,0.86,0.44,1.33,0.34l3.42-0.74c1.23-0.27,1.63-1.83,0.68-2.66
					l-24.86-21.51c-0.35-0.3-0.81-0.43-1.26-0.35l-3.55,0.59C366.44,261.56,365.99,263.17,366.97,264.02z"/>
				<path class="st15" d="M406.25,318.58l-12.15-33.33c0,0-0.62-3.74-1.25-4.67c-0.62-0.93-1.87-3.12-1.87-3.12s-1.87-7.48-2.8-7.48
					c-0.93,0-2.18,0.62-2.8,1.87c-0.62,1.25-0.62,6.85-0.62,6.85l-7.79-6.23c0,0-0.93,4.67-0.93,5.92s3.43,3.43,3.43,4.67
					c0,1.25,1.56,4.36,3.12,5.61c1.56,1.25,5.61,2.18,5.61,2.18l2.49,32.4l16.82-1.25L406.25,318.58z"/>
				<path class="st2" d="M400.18,301.93c-4.74-0.34-8.53,1.21-10.94,2.65l1.44,18.67l16.82-1.25l-1.25-3.43L400.18,301.93z"/>
			</g>
			<g>
				<path class="st13" d="M460.86,223.28c0,0-5.08,7.62-5.08,9.84s-1.9,3.49-3.17,4.76c-1.27,1.27-5.4,0.63-5.4,3.81
					c0,3.17,4.13,8.89,4.13,8.89s-0.95,9.84,0.95,13.33c1.9,3.49,11.75,2.54,11.75,2.54l2.54,13.97c0,0,12.7-3.49,15.87-3.49
					c3.17,0,7.62,0,7.62,0l-0.63-14.92c0,0,4.13-5.4,4.13-15.87c0-10.48-19.05-24.76-23.49-25.4
					C465.62,220.11,460.86,223.28,460.86,223.28z"/>
				<path class="st11" d="M454.03,265.29c0,0,1.55,0,5.33-0.69c3.78-0.69,6.71-3.1,6.88-3.61c0.17-0.52-1.2,10.49-1.2,10.49l-1-5.03
					C464.04,266.46,455.92,267.53,454.03,265.29z"/>
				<path class="st3" d="M452.29,252.81c0,0,3.49,1.27,4.44-1.27"/>
				<path class="st14" d="M457.66,238.28c-0.32,1.27-1,2.2-1.51,2.08c-0.51-0.13-0.66-1.27-0.34-2.54s1-2.2,1.51-2.08
					C457.83,235.86,457.98,237,457.66,238.28z"/>
				<path class="st3" d="M455.78,233.12c0,0,2.54-2.54,3.49,0.95"/>
			</g>
		</g>
		<path class="st2" d="M493.24,275.34c0,0-10.79-3.49-20.63,0c-9.84,3.49-22.86,9.52-26.67,11.75c-3.81,2.22-9.21,5.71-10.16,8.57
			c-0.95,2.86-2.22,12.06-2.22,12.06h78.73c0,0-5.08-26.35-9.52-29.21C498.32,275.66,493.24,275.34,493.24,275.34z"/>
		<g>
			<path class="st8" d="M404.69,310.48l-29.91,1.56c0,0-38.63-9.03-44.86-8.41c-6.23,0.62-1.25,15.26-1.56,23.05
				c-0.31,7.79,0.93,20.87,0.93,20.87H405L404.69,310.48z"/>
			<path class="st3" d="M340.28,307.61c6.23,1.13,14.05,2.72,17.37,4.12c5.92,2.49,15.58,5.61,15.58,5.61s21.18-3.12,28.04-3.74"/>
			<path class="st3" d="M331.48,306.12c0,0,2.13,0.33,5.21,0.86"/>
		</g>
		<g>
			<path class="st2" d="M438.96,290.54c0,0-33.96-2.18-35.2,2.18s-2.18,52.65-2.18,52.65h128.04l0.05-49.99c0,0-0.62-1.25-4.05-1.25
				c-3.43,0-31.51,0.77-31.51,0.77L438.96,290.54z"/>
			<path class="st10" d="M417.46,299.58c-1.99,1.42-6.34,39.35-7.06,45.79h119.21l0.05-49.13c-9.08,1.4-34.05,3.96-42.42,3.96
				C478.21,300.2,419.64,298.02,417.46,299.58z"/>
		</g>
		<g>
			<path class="st2" d="M541.76,293.97c0,0,78.28-4.36,86.69-4.36c8.41,0,9.66,2.49,11.21,5.61c1.56,3.12,1.25,6.23,1.25,7.17
				s-8.1,31.78-8.1,31.78H523.38l1.87-39.87L541.76,293.97z"/>
			<path class="st10" d="M640.91,302.38c0,0-0.93-3.43-4.36-3.43c-3.18,0-99.25,1.87-111.64,2.64l-1.53,32.56h109.43
				C632.81,334.16,640.91,303.32,640.91,302.38z"/>
		</g>
		<g>
			<path class="st2" d="M651.51,460.18H302.6V347.97c0-3.49,2.83-6.31,6.31-6.31h336.1c3.58,0,6.49,2.91,6.49,6.49V460.18z"/>
			<path class="st2" d="M624.24,357.92H420.07v-40.54c0-2.87,2.33-5.2,5.2-5.2h198.98V357.92z"/>
			<path class="st11" d="M633.47,341.65v-23.29c0-3.41-2.76-6.18-6.18-6.18H434.16c-2.68,0-4.86,2.17-4.86,4.86v24.61h-22.52
				c-2.62,0-4.75,2.12-4.75,4.75v113.78H652V347.72c0-3.35-2.72-6.07-6.07-6.07H633.47z"/>
		</g>
		<g>
			<path class="st15" d="M557.05,281.84c0,0-3.81-9.21-14.92-8.57c-11.11,0.63-12.06,7.3-14.29,14.29
				c-2.22,6.98-4.44,20.95-4.44,20.95s-44.76-15.87-46.35-16.83c-1.59-0.95-5.71-5.08-8.89-7.94c-3.17-2.86-7.62-3.17-10.79-1.9
				c-3.17,1.27-10.79,6.35-12.38,7.62c-1.59,1.27-1.59,1.9,0.32,2.22c1.9,0.32,10.16,0.32,10.16,0.32s5.71,1.27,8.57,3.49
				c2.86,2.22,8.57,2.86,8.57,2.86s20.32,16.19,28.89,22.54c8.57,6.35,25.71,17.14,29.84,17.14c4.13,0,9.52,0,10.79-3.17
				c1.27-3.17,14.92-45.71,14.92-45.71"/>
			<path class="st2" d="M557.05,281.84c-1.29-2.3-5.96-9.08-14.92-8.57c-11.11,0.63-12.06,7.3-14.29,14.29
				c-0.88,2.77-1.76,6.63-2.5,10.29c2.64-1.33,7.08-2.46,13.93-1.09c6.46,1.29,10.69,3.97,13.3,6.3c1.98-6.15,4.37-13.33,4.97-15.22
				"/>
			<line class="st2" x1="538.72" y1="312.71" x2="541.53" y2="313.5"/>
			<line class="st2" x1="523.89" y1="308.55" x2="536.95" y2="312.22"/>
		</g>
		<path class="st11" d="M470.7,209.63c0,0-12.06,0-13.33,4.44c-1.27,4.44,8.57,27.3,10.48,29.52c1.9,2.22,5.08,13.02,9.21,16.19
			c4.13,3.17,9.21,4.76,9.21,4.76s4.13,7.3,0,14.92c-4.13,7.62-13.02,11.11-13.65,26.35c-0.63,15.24,11.43,22.22,17.78,23.49
			c6.35,1.27,12.06-4.76,12.06-4.76s-6.67-0.32-3.17-6.35c3.49-6.03,13.97-5.71,14.29-20.32c0.32-14.6-6.98-22.86-12.06-25.71
			c-5.08-2.86-9.21-8.57-9.21-8.57s9.21-6.35,12.7-15.24c3.49-8.89,4.44-20.32-1.27-30.48c-3.14-5.57-9.29-8.57-15.37-9.67
			C481.93,207.06,476.8,209.63,470.7,209.63z"/>
	</g>
	<line class="st16" x1="29.56" y1="460.18" x2="687.68" y2="460.18"/>
</g>
</svg>
